<svg id="Layer_1" data-name="Layer 1" xmlns="http://www.w3.org/2000/svg" xmlns:xlink="http://www.w3.org/1999/xlink" viewBox="0 0 100 100"><defs><style>.cls-1{fill:url(#linear-gradient);}.cls-2{fill:url(#linear-gradient-2);}.cls-3{fill:url(#linear-gradient-3);}.cls-4{fill:url(#linear-gradient-4);}.cls-5{fill:url(#linear-gradient-5);}.cls-6{fill:url(#linear-gradient-6);}</style><linearGradient id="linear-gradient" x1="61.03" y1="35.7" x2="86.29" y2="35.7" gradientUnits="userSpaceOnUse"><stop offset="0" stop-color="#f5c382"/><stop offset="0.4" stop-color="#f9d1ae"/><stop offset="1" stop-color="#f5c382"/></linearGradient><linearGradient id="linear-gradient-2" x1="76.47" y1="16.79" x2="90" y2="16.79" xlink:href="#linear-gradient"/><linearGradient id="linear-gradient-3" x1="62.29" y1="19.71" x2="70.42" y2="19.71" xlink:href="#linear-gradient"/><linearGradient id="linear-gradient-4" x1="12.59" y1="66.33" x2="36.69" y2="66.33" xlink:href="#linear-gradient"/><linearGradient id="linear-gradient-5" x1="10" y1="83.81" x2="22.48" y2="83.81" xlink:href="#linear-gradient"/><linearGradient id="linear-gradient-6" x1="30.34" y1="79.05" x2="37.39" y2="79.05" xlink:href="#linear-gradient"/></defs><path class="cls-1" d="M73.58,23a5.06,5.06,0,0,1,.7.72c.34.56.63,1.14.94,1.72.89,1.62,1.8,3.24,2.68,4.87a3.4,3.4,0,0,0,1.46,1.4l4.81,2.58c.51.28,1,.54,1.53.84.78.47.79.9,0,1.33-1.45.8-2.91,1.55-4.37,2.32-.76.4-1.54.77-2.26,1.24A3.19,3.19,0,0,0,78,41.07c-1.23,2.18-2.41,4.39-3.6,6.59a3.06,3.06,0,0,1-.33.52.52.52,0,0,1-.88,0,4,4,0,0,1-.23-.34L70.41,43a11.8,11.8,0,0,0-1-1.7A5.51,5.51,0,0,0,68,39.93c-1.92-1.13-3.9-2.18-5.85-3.25-.18-.1-.37-.18-.55-.29-.72-.44-.74-.87,0-1.27s1.6-.8,2.38-1.24c1.46-.82,3-1.61,4.35-2.53a4.82,4.82,0,0,0,1.42-1.59c1.11-1.94,2.12-3.92,3.19-5.88A9.79,9.79,0,0,1,73.58,23Z"/><path class="cls-2" d="M90,16.79a10.59,10.59,0,0,1-.92.67c-.87.49-1.74,1-2.62,1.43A3.35,3.35,0,0,0,85,20.44c-.39.8-.77,1.61-1.19,2.4-.15.28-.37.64-.64.72-.45.13-.6-.35-.77-.67-.32-.58-.62-1.16-.9-1.75a4.9,4.9,0,0,0-2.28-2.55c-.7-.35-1.38-.76-2.06-1.16-.93-.55-.93-1,0-1.53.72-.4,1.43-.82,2.18-1.17A3.63,3.63,0,0,0,81.13,13c.4-.8.8-1.6,1.25-2.37.16-.26.49-.6.73-.59s.54.37.7.64c.45.81.84,1.65,1.25,2.48a3.32,3.32,0,0,0,1.5,1.51c.86.44,1.72.87,2.55,1.35A5.62,5.62,0,0,1,90,16.79Z"/><path class="cls-3" d="M66.38,15.48c.22.21.51.36.58.58a5.38,5.38,0,0,0,3,3.08c.63.32.61.89,0,1.16a5.59,5.59,0,0,0-3.07,3.15c-.3.68-.74.63-1.11,0a1.43,1.43,0,0,1-.13-.28,4,4,0,0,0-2.53-2.66.81.81,0,0,1-.18-.1c-.83-.48-.82-.88,0-1.39a8,8,0,0,1,.81-.45,3.38,3.38,0,0,0,1.74-1.95,3.85,3.85,0,0,1,.37-.73A2.5,2.5,0,0,1,66.38,15.48Z"/><path class="cls-4" d="M24.64,78.44a3,3,0,0,1-.59-.58c-.37-.62-.69-1.26-1-1.9-.84-1.53-1.61-3.11-2.54-4.59a4.93,4.93,0,0,0-1.68-1.45c-1.67-1-3.38-1.83-5.08-2.74l-.18-.1c-.36-.23-.92-.31-.94-.85s.52-.67.89-.87c1.67-.88,3.34-1.77,5-2.61A5.39,5.39,0,0,0,21,60.34c.89-1.74,1.83-3.46,2.76-5.18.22-.41.4-1,.94-.94.33.06.66.55.85.92.9,1.66,1.77,3.33,2.59,5a5.26,5.26,0,0,0,2.47,2.52c1.72.86,3.43,1.73,5.12,2.63.4.22,1,.34,1,.93s-.64.66-1,.88l-5.44,2.93A4.26,4.26,0,0,0,28.37,72c-.93,1.83-1.9,3.65-2.86,5.47a6.23,6.23,0,0,1-.41.71A2,2,0,0,1,24.64,78.44Z"/><path class="cls-5" d="M16.22,77.63a5.48,5.48,0,0,1,.66.77c.38.66.73,1.33,1.06,2a3.73,3.73,0,0,0,1.81,1.76c.71.35,1.43.68,2.11,1.07.83.46.82.85,0,1.29s-1.47.72-2.22,1.08A3.35,3.35,0,0,0,18,87.25c-.31.65-.65,1.28-1,1.93-.18.36-.33.9-.79.81-.31-.06-.6-.49-.81-.82a9.1,9.1,0,0,1-.74-1.46,4.16,4.16,0,0,0-2.31-2.36,19.33,19.33,0,0,1-1.93-1c-.59-.35-.6-.73,0-1.07a19.42,19.42,0,0,1,1.94-1,4.17,4.17,0,0,0,2.26-2.13c.28-.63.6-1.24.93-1.84A6.21,6.21,0,0,1,16.22,77.63Z"/><path class="cls-6" d="M37.39,78.93a2.69,2.69,0,0,1-.36.49,2.17,2.17,0,0,1-.53.31,3.27,3.27,0,0,0-1.82,1.72c-.18.37-.53.83-.87.91-.51.11-.67-.49-.85-.88a3.55,3.55,0,0,0-1.81-1.75c-.32-.16-.73-.42-.8-.71-.11-.49.43-.68.78-.82a3.8,3.8,0,0,0,2-1.85c.45-.82.87-.84,1.35-.07a5.24,5.24,0,0,0,2.24,2.06A3.62,3.62,0,0,1,37.39,78.93Z"/></svg>